<svg fill="#000000" xmlns="http://www.w3.org/2000/svg"  viewBox="0 0 100 100" width="100px" height="100px"><path d="M 50 12 C 45.767907 12 41.937375 12.562498 39.078125 13.515625 C 37.6485 13.992189 36.458699 14.559798 35.560547 15.267578 C 34.662394 15.975358 34 16.904341 34 18 C 34 18.1722 34.034647 18.290069 34.060547 18.423828 A 1.0001 1.0001 0 0 0 34.089844 18.681641 L 34.101562 18.728516 L 34.103516 18.736328 L 34.107422 18.751953 L 34.111328 18.767578 L 36.066406 27.646484 C 35.760159 27.604936 35.454842 27.573491 35.148438 27.529297 C 30.39194 26.842536 26 30.265066 26 34.792969 L 26 34.810547 C 26 37.944308 28.140459 40.635389 31.152344 41.681641 C 29.867727 42.476664 29 43.88773 29 45.5 C 29 47.517055 30.386618 49.085331 32.107422 49.681641 C 32.417664 54.643836 34.630394 59.078477 38 62.222656 L 28.625 64.769531 C 27.671735 65.029065 26.788918 65.553144 26.121094 66.318359 C 20.071785 73.256609 18.623841 79.747894 17.033203 85.744141 A 1.0001 1.0001 0 0 0 18 87 L 50 87 L 82 87 A 1.0001 1.0001 0 0 0 82.966797 85.744141 C 81.376159 79.747894 79.929242 73.25661 73.878906 66.318359 C 73.211817 65.553986 72.329302 65.028437 71.375 64.769531 L 71.373047 64.769531 L 62 62.222656 C 65.368595 59.079691 67.58094 54.647523 67.892578 49.6875 C 69.675588 49.09188 71 47.477818 71 45.5 C 71 43.90106 70.14788 42.497928 68.880859 41.699219 C 71.87603 40.645287 73.998047 37.958236 73.998047 34.837891 C 73.999247 30.302784 69.594989 26.886065 64.833984 27.578125 L 64.832031 27.578125 C 64.530201 27.622029 64.227761 27.652225 63.925781 27.693359 L 65.888672 18.771484 C 65.888941 18.770534 65.890325 18.768378 65.890625 18.767578 L 65.890625 18.763672 C 65.894425 18.748882 65.894584 18.748704 65.896484 18.740234 L 65.898438 18.728516 C 65.898825 18.726616 65.900091 18.721903 65.900391 18.720703 C 65.900784 18.718603 65.904297 18.707171 65.904297 18.707031 L 65.912109 18.681641 A 1.0001 1.0001 0 0 0 65.941406 18.412109 C 65.96603 18.281026 66 18.167423 66 18 C 66 16.904341 65.337606 15.975358 64.439453 15.267578 C 63.541301 14.559798 62.3515 13.992189 60.921875 13.515625 C 58.062625 12.562498 54.232093 12 50 12 z M 50 14 C 54.051907 14 57.721266 14.55744 60.291016 15.414062 C 61.575891 15.842375 62.583152 16.35128 63.203125 16.839844 C 63.823098 17.328407 64 17.715159 64 18 C 64 18.01548 63.992904 18.07823 63.964844 18.1875 A 1.0001 1.0001 0 0 0 63.943359 18.310547 L 61.990234 27.185547 C 59.374181 25.807561 55.006774 24.974609 50 24.974609 A 0.50005 0.50005 0 1 0 50 25.974609 C 54.738828 25.974609 58.928789 26.809732 61.314453 27.962891 C 53.846369 28.782804 46.332813 28.763433 38.771484 27.929688 C 39.549148 27.558277 40.492386 27.213923 41.595703 26.929688 A 0.50005 0.50005 0 0 0 41.478516 25.943359 A 0.50005 0.50005 0 0 0 41.345703 25.960938 C 40.048439 26.295138 38.925978 26.702568 38.011719 27.179688 L 36.060547 18.322266 L 36.058594 18.314453 A 1.0001 1.0001 0 0 0 36.035156 18.1875 C 36.00708 18.078231 36 18.015481 36 18 C 36 17.715159 36.176902 17.328407 36.796875 16.839844 C 37.416848 16.35128 38.424109 15.842374 39.708984 15.414062 C 42.278734 14.557441 45.948093 14 50 14 z M 63.957031 18.253906 L 63.957031 18.257812 L 63.955078 18.257812 C 63.955299 18.256974 63.956731 18.254806 63.957031 18.253906 z M 47.732422 25.035156 C 46.340379 25.110076 45.01523 25.253009 43.787109 25.453125 A 0.50058706 0.50058706 0 1 0 43.947266 26.441406 C 45.137145 26.247522 46.427199 26.108239 47.785156 26.035156 A 0.50069474 0.50069474 0 1 0 47.732422 25.035156 z M 34.181641 29.447266 C 34.406414 29.456579 34.634187 29.476688 34.863281 29.509766 C 35.63457 29.621011 36.405256 29.707975 37.175781 29.802734 A 1.0001 1.0001 0 0 0 37.224609 29.810547 C 37.251295 29.813817 37.278003 29.815109 37.304688 29.818359 C 38.293656 29.938809 39.28185 30.0455 40.269531 30.138672 C 40.389995 30.150037 40.510414 30.160917 40.630859 30.171875 C 41.623126 30.262143 42.614537 30.341711 43.605469 30.404297 C 43.645167 30.406805 43.684913 30.407693 43.724609 30.410156 C 47.905727 30.669553 52.074594 30.680844 56.230469 30.441406 C 56.315094 30.436531 56.399761 30.432819 56.484375 30.427734 C 57.431786 30.370806 58.378197 30.298016 59.324219 30.214844 C 59.48697 30.200532 59.64979 30.186966 59.8125 30.171875 C 60.763789 30.083664 61.714213 29.984036 62.664062 29.869141 C 62.697913 29.865045 62.731776 29.861551 62.765625 29.857422 A 1.0001 1.0001 0 0 0 62.804688 29.849609 C 63.576864 29.755124 64.349886 29.668836 65.121094 29.556641 C 68.793315 29.021961 71.998878 31.609638 71.998047 34.837891 C 71.998047 37.494398 69.81514 39.823839 66.775391 40.142578 C 66.525543 40.168658 66.256871 40.192324 65.996094 40.214844 C 65.978102 40.178105 65.955681 40.14405 65.9375 40.107422 C 65.736128 39.698423 65.524 39.298178 65.296875 38.90625 C 65.271415 38.86215 65.244523 38.819276 65.21875 38.775391 C 64.988873 38.385782 64.751843 38.002831 64.496094 37.632812 C 64.414641 37.513887 64.324366 37.401979 64.240234 37.285156 C 64.025235 36.989389 63.812341 36.69108 63.580078 36.410156 C 63.245666 36.002541 62.89448 35.609324 62.521484 35.236328 A 1.0001 1.0001 0 0 0 62.376953 35.117188 C 59.38576 33.085121 54.437788 32.478215 49.541016 32.640625 C 44.644244 32.803035 39.874412 33.732895 37.177734 35.576172 A 1.0001 1.0001 0 0 0 37.009766 35.720703 C 36.690005 36.064666 36.389605 36.425836 36.101562 36.796875 C 35.905119 37.048076 35.723956 37.311816 35.541016 37.574219 C 35.46361 37.686206 35.381626 37.79437 35.306641 37.908203 C 35.10022 38.21901 34.907229 38.539124 34.71875 38.863281 C 34.67718 38.935021 34.634498 39.005826 34.59375 39.078125 C 34.412622 39.398975 34.240352 39.72459 34.076172 40.056641 C 34.054007 40.101004 34.027754 40.142977 34.005859 40.1875 C 33.753114 40.16591 33.49239 40.144251 33.25 40.119141 C 30.200247 39.806345 28 37.474054 28 34.810547 L 28 34.792969 C 28 31.772253 30.810041 29.30757 34.181641 29.447266 z M 51.337891 34.625 C 51.91256 34.633904 52.482708 34.657065 53.044922 34.693359 C 53.606985 34.729596 54.159335 34.778854 54.699219 34.841797 C 54.699219 34.841797 54.701172 34.841797 54.701172 34.841797 C 55.240366 34.904695 55.766084 34.981429 56.273438 35.070312 C 56.273438 35.070312 56.275391 35.070312 56.275391 35.070312 C 56.381113 35.088843 56.475993 35.115124 56.580078 35.134766 C 57.476398 35.303974 58.320868 35.508324 59.064453 35.757812 C 59.478438 35.896697 59.865639 36.046121 60.21875 36.208984 C 60.21875 36.208984 60.220703 36.210938 60.220703 36.210938 C 60.573516 36.373795 60.893483 36.548211 61.175781 36.734375 C 61.175781 36.734375 61.177734 36.736328 61.177734 36.736328 C 61.534875 37.098045 61.871082 37.481321 62.195312 37.875 C 62.426055 38.157765 62.641158 38.455082 62.853516 38.753906 C 62.935758 38.868253 63.022136 38.979144 63.101562 39.095703 C 63.367226 39.490489 63.618843 39.897069 63.851562 40.316406 C 63.85441 40.321481 63.856532 40.326954 63.859375 40.332031 C 64.100391 40.767378 64.323749 41.214307 64.527344 41.673828 A 1.0001 1.0001 0 0 0 64.542969 41.707031 C 64.649808 41.948795 64.771829 42.181606 64.867188 42.429688 A 1.0001 1.0001 0 0 0 66 43.050781 C 66.163193 43.017565 66.329444 43 66.5 43 C 67.892562 43 69 44.107438 69 45.5 C 69 46.772298 68.064205 47.792353 66.841797 47.960938 A 1.0001 1.0001 0 0 0 65.978516 48.927734 C 65.84628 54.247543 63.280202 58.914191 59.400391 61.832031 C 59.395502 61.835708 59.389659 61.838126 59.384766 61.841797 A 1.0001 1.0001 0 0 0 59.314453 61.888672 C 58.021509 62.84888 56.588095 63.613626 55.052734 64.146484 C 55.021888 64.15707 54.991867 64.169291 54.960938 64.179688 C 54.698559 64.268891 54.430303 64.342704 54.162109 64.417969 C 53.942458 64.478869 53.723296 64.540408 53.5 64.591797 C 53.292803 64.640078 53.083262 64.682843 52.873047 64.722656 C 52.572781 64.778791 52.268772 64.824672 51.962891 64.863281 C 51.798791 64.884259 51.636368 64.910026 51.470703 64.925781 C 50.985814 64.971326 50.496494 65 50 65 C 49.503506 65 49.014186 64.971326 48.529297 64.925781 C 48.363632 64.910026 48.201209 64.884259 48.037109 64.863281 C 47.731228 64.824672 47.427219 64.778791 47.126953 64.722656 C 46.916738 64.682843 46.707197 64.640078 46.5 64.591797 C 46.276704 64.540408 46.057542 64.478869 45.837891 64.417969 C 45.569697 64.342704 45.301441 64.268891 45.039062 64.179688 C 45.008185 64.16919 44.97806 64.157172 44.947266 64.146484 C 43.411905 63.613626 41.978491 62.84888 40.685547 61.888672 A 1.0001 1.0001 0 0 0 40.621094 61.847656 C 36.729372 58.930939 34.153961 54.257244 34.021484 48.927734 A 1.0001 1.0001 0 0 0 33.171875 47.962891 C 32.103638 47.800274 31 46.721798 31 45.5 C 31 44.107438 32.107438 43 33.5 43 C 33.670556 43 33.836807 43.017561 34 43.050781 A 1.0001 1.0001 0 0 0 35.132812 42.429688 C 35.227182 42.184003 35.343441 41.950384 35.449219 41.710938 A 1.0001 1.0001 0 0 0 35.480469 41.648438 C 35.848934 40.821119 36.282492 40.030556 36.771484 39.287109 C 37.261078 38.543008 37.807677 37.843889 38.402344 37.193359 C 39.662825 36.358387 41.918548 35.630159 44.556641 35.164062 C 44.560456 35.16339 44.564542 35.162781 44.568359 35.162109 C 45.097012 35.068908 45.640854 34.986996 46.195312 34.916016 C 47.304404 34.774311 48.454604 34.67886 49.607422 34.640625 C 50.184806 34.621475 50.763221 34.616096 51.337891 34.625 z M 42.146484 38.369141 C 41.709609 38.380437 41.253219 38.469172 40.824219 38.638672 C 39.650219 39.087672 38.893078 40.115578 38.580078 40.892578 C 38.397078 41.274578 38.344828 41.636047 38.298828 41.873047 C 38.261828 42.117047 38.259766 42.257812 38.259766 42.257812 C 38.259766 42.257813 38.633969 41.825344 39.167969 41.277344 C 39.697969 40.719344 40.454109 40.121875 41.287109 39.796875 C 42.112109 39.455875 43.066078 39.396172 43.830078 39.451172 C 44.195078 39.503172 44.541344 39.491734 44.777344 39.552734 C 45.016344 39.586734 45.158203 39.589844 45.158203 39.589844 C 45.158203 39.589844 44.803672 39.164344 44.013672 38.777344 C 43.621672 38.626344 43.140172 38.408813 42.576172 38.382812 C 42.436672 38.369563 42.292109 38.365375 42.146484 38.369141 z M 57.271484 38.369141 C 57.125859 38.365375 56.981297 38.369563 56.841797 38.382812 C 56.277797 38.408813 55.796297 38.625344 55.404297 38.777344 C 54.614297 39.164344 54.259766 39.589844 54.259766 39.589844 C 54.259766 39.589844 54.400625 39.586734 54.640625 39.552734 C 54.876625 39.491734 55.222891 39.504172 55.587891 39.451172 C 56.350891 39.396172 57.304859 39.455875 58.130859 39.796875 C 58.963859 40.121875 59.72 40.719344 60.25 41.277344 C 60.783 41.824344 61.158203 42.257812 61.158203 42.257812 C 61.158203 42.257813 61.156141 42.117047 61.119141 41.873047 C 61.073141 41.636047 61.020891 41.275578 60.837891 40.892578 C 60.524891 40.115578 59.76775 39.087672 58.59375 38.638672 C 58.16475 38.469172 57.708359 38.380437 57.271484 38.369141 z M 43 42 C 42.201 42 41.518266 42.589547 41.197266 43.435547 C 41.378266 43.178547 41.662 43 42 43 C 42.552 43 43 43.448 43 44 C 43 44.552 42.552 45 42 45 C 41.498 45 41.101297 44.623578 41.029297 44.142578 C 41.015297 44.259578 41 44.378 41 44.5 C 41 45.881 41.895 47 43 47 C 44.105 47 45 45.881 45 44.5 C 45 43.119 44.105 42 43 42 z M 56 42 C 55.201 42 54.518266 42.589547 54.197266 43.435547 C 54.378266 43.178547 54.662 43 55 43 C 55.552 43 56 43.448 56 44 C 56 44.552 55.552 45 55 45 C 54.498 45 54.101297 44.623578 54.029297 44.142578 C 54.015297 44.259578 54 44.378 54 44.5 C 54 45.881 54.895 47 56 47 C 57.105 47 58 45.881 58 44.5 C 58 43.119 57.105 42 56 42 z M 46.992188 49.492188 A 0.50005 0.50005 0 0 0 46.5 50 C 46.5 50.586397 46.710427 51.064548 46.992188 51.480469 C 46.530605 51.634694 46.076775 51.741352 45.583984 52.091797 A 0.50005 0.50005 0 0 0 45.550781 52.119141 C 43.161411 54.143409 41.109931 54.081322 39.490234 53.355469 C 37.870538 52.629615 36.712782 51.090006 36.476562 50.347656 A 0.50005 0.50005 0 0 0 35.5 50.5 C 35.5 50.55573 35.522507 50.59714 35.523438 50.652344 C 35.523438 50.652344 35.525391 50.654297 35.525391 50.654297 C 35.595181 54.763767 38.18788 57.43123 41.216797 58.513672 C 42.85136 59.097815 44.611953 59.241191 46.205078 58.955078 C 46.679873 60.109388 47.970123 60.939453 49.498047 60.939453 C 51.068754 60.939453 52.381526 60.060004 52.822266 58.855469 C 54.533734 59.268577 56.484607 59.156435 58.283203 58.513672 C 61.31212 57.43123 63.904823 54.763767 63.974609 50.654297 C 63.974609 50.654297 63.976562 50.652344 63.976562 50.652344 C 63.977391 50.597138 64 50.555732 64 50.5 A 0.50005 0.50005 0 0 0 63.023438 50.347656 C 62.787217 51.090006 61.629462 52.629615 60.009766 53.355469 C 58.390069 54.081322 56.338589 54.143409 53.949219 52.119141 A 0.50005 0.50005 0 0 0 53.916016 52.091797 C 53.275986 51.637374 52.683651 51.508323 52.09375 51.371094 C 52.329835 50.977274 52.5 50.531354 52.5 50 A 0.50005 0.50005 0 1 0 51.5 50 C 51.5 50.611111 51.269191 51.006522 50.90625 51.296875 C 50.559394 51.57436 50.063399 51.716762 49.5625 51.730469 C 49.013166 51.743199 48.465625 51.591078 48.089844 51.287109 C 47.731515 50.99735 47.5 50.60661 47.5 50 A 0.50005 0.50005 0 0 0 46.992188 49.492188 z M 51.40625 52.125 C 51.944671 52.16111 52.595661 52.382607 53.335938 52.908203 L 53.302734 52.880859 C 55.926364 55.103591 58.506415 55.124225 60.417969 54.267578 C 61.329427 53.859116 62.071329 53.272426 62.664062 52.65625 C 61.967203 55.161427 60.128592 56.790774 57.947266 57.570312 C 55.185957 58.557121 52.002853 58.121306 50.40625 56.486328 A 0.50005 0.50005 0 0 0 50.400391 56.480469 C 50.318871 56.399669 50.240177 56.299247 50.134766 56.171875 A 0.50005 0.50005 0 0 0 49.365234 56.171875 C 49.26091 56.297933 49.180193 56.399885 49.097656 56.482422 A 0.50005 0.50005 0 0 0 49.09375 56.486328 C 47.497147 58.121306 44.314043 58.55712 41.552734 57.570312 C 39.371408 56.790774 37.532796 55.161427 36.835938 52.65625 C 37.428671 53.272426 38.170573 53.859116 39.082031 54.267578 C 40.993585 55.124225 43.573636 55.103591 46.197266 52.880859 L 46.164062 52.908203 C 46.775031 52.473717 47.314813 52.272472 47.798828 52.1875 C 48.319121 52.505909 48.892833 52.75 49.5 52.75 C 49.53139 52.75 49.556491 52.721503 49.587891 52.720703 C 49.604011 52.72031 49.616702 52.736918 49.632812 52.736328 C 50.267987 52.743428 50.867825 52.476748 51.40625 52.125 z M 45.072266 61.429688 C 45.072266 61.429688 45.442297 61.898875 46.154297 62.421875 C 46.856297 62.933875 47.964328 63.532844 49.236328 63.589844 C 49.861328 63.614844 50.500828 63.541844 51.048828 63.339844 C 51.609828 63.167844 52.052781 62.848422 52.425781 62.607422 C 53.154781 62.044422 53.458984 61.544922 53.458984 61.544922 C 53.458984 61.544922 53.312312 61.579969 53.070312 61.667969 C 52.838313 61.779969 52.471516 61.846281 52.103516 61.988281 C 51.314516 62.227281 50.302687 62.417656 49.304688 62.347656 C 48.309688 62.295656 47.271844 62.026969 46.464844 61.792969 C 45.659844 61.558969 45.072266 61.429688 45.072266 61.429688 z M 60.089844 63.775391 L 64.255859 64.908203 L 65.757812 67.908203 L 61.742188 69.570312 A 0.50005 0.50005 0 0 0 61.705078 70.476562 L 66.380859 72.884766 L 62.515625 79.851562 A 0.50005 0.50005 0 1 0 63.388672 80.335938 L 67.505859 72.919922 A 0.50005 0.50005 0 0 0 67.296875 72.232422 L 63.121094 70.082031 L 66.636719 68.628906 A 0.50005 0.50005 0 0 0 66.892578 67.941406 L 65.550781 65.259766 L 70.849609 66.699219 C 71.444687 66.860466 71.982559 67.187618 72.371094 67.632812 C 77.726189 73.773794 79.173258 79.372075 80.650391 85 L 60.800781 85 L 62.183594 82.507812 A 0.50005 0.50005 0 0 0 61.746094 81.757812 A 0.50005 0.50005 0 0 0 61.310547 82.021484 L 59.65625 85 L 56.091797 85 L 59.566406 64.142578 C 59.744986 64.025908 59.915634 63.898316 60.089844 63.775391 z M 39.396484 63.914062 L 42.908203 85 L 39.341797 85 L 37.960938 82.511719 A 0.50006103 0.50006103 0 1 0 37.085938 82.996094 L 38.199219 85 L 29.919922 85 C 29.905909 81.840162 29.695443 79.013234 29.425781 76.695312 A 0.50005 0.50005 0 0 0 28.914062 76.246094 A 0.50005 0.50005 0 0 0 28.433594 76.810547 C 28.699427 79.095563 28.905987 81.884596 28.919922 85 L 19.349609 85 C 20.826742 79.372067 22.272764 73.773796 27.626953 67.632812 C 28.014767 67.188444 28.55237 66.861837 29.148438 66.699219 L 33.292969 65.574219 L 32.107422 67.941406 A 0.50005 0.50005 0 0 0 32.363281 68.628906 L 35.878906 70.082031 L 31.703125 72.232422 A 0.50005 0.50005 0 0 0 31.494141 72.919922 L 32.554688 74.828125 A 0.50005 0.50005 0 1 0 33.427734 74.341797 L 32.619141 72.884766 L 37.294922 70.476562 A 0.50005 0.50005 0 0 0 37.257812 69.570312 L 33.242188 67.908203 L 34.587891 65.220703 L 39.396484 63.914062 z M 40.447266 64.148438 C 41.897312 65.094208 43.48927 65.823745 45.183594 66.310547 L 42.154297 74.388672 L 40.447266 64.148438 z M 58.441406 64.814453 L 56.845703 74.388672 L 53.902344 66.544922 C 55.508267 66.176886 57.031809 65.59344 58.441406 64.814453 z M 46.158203 66.558594 C 46.340939 66.599789 46.522214 66.644289 46.707031 66.679688 L 49.052734 71.369141 A 0.50005 0.50005 0 0 0 49.947266 71.369141 L 52.208984 66.845703 C 52.287641 66.835723 52.36503 66.821573 52.443359 66.810547 C 52.594738 66.788003 52.746431 66.766814 52.896484 66.740234 C 52.899768 66.739653 52.902967 66.738865 52.90625 66.738281 L 56.259766 75.679688 L 54.386719 76.382812 L 52.771484 72.072266 A 0.50005 0.50005 0 0 0 51.855469 72.023438 L 49.5 76.738281 L 47.142578 72.023438 A 0.50005 0.50005 0 0 0 46.228516 72.072266 L 44.611328 76.382812 L 42.738281 75.679688 L 46.158203 66.558594 z M 47.917969 66.865234 C 48.104898 66.887552 48.291783 66.907482 48.480469 66.923828 C 48.981317 66.969905 49.486709 67 50 67 C 50.348915 67 50.691898 66.978518 51.035156 66.957031 L 49.5 70.027344 L 47.917969 66.865234 z M 71.013672 68.664062 A 0.50005 0.50005 0 0 0 70.558594 69.044922 C 70.558594 69.044922 70.140818 70.662639 69.716797 73.408203 A 0.50005 0.50005 0 1 0 70.705078 73.560547 C 71.123057 70.854111 71.527344 69.294922 71.527344 69.294922 A 0.50005 0.50005 0 0 0 71.013672 68.664062 z M 27.763672 69.613281 A 0.50005 0.50005 0 0 0 27.314453 70.244141 C 27.314453 70.244141 27.694918 71.709476 28.087891 74.255859 A 0.50005 0.50005 0 1 0 29.076172 74.103516 C 28.677144 71.517899 28.283203 69.994141 28.283203 69.994141 A 0.50005 0.50005 0 0 0 27.763672 69.613281 z M 46.761719 73.498047 L 49.052734 78.078125 A 0.50005 0.50005 0 0 0 49.945312 78.078125 L 52.236328 73.498047 L 53.626953 77.203125 A 0.50005 0.50005 0 0 0 54.271484 77.496094 L 56.464844 76.671875 L 55.076172 85 L 50 85 L 43.923828 85 L 42.535156 76.671875 L 44.728516 77.496094 A 0.50005 0.50005 0 0 0 45.373047 77.203125 L 46.761719 73.498047 z M 69.841797 75.712891 A 0.50005 0.50005 0 0 0 69.34375 76.162109 C 69.147459 77.848201 68.980241 79.781866 68.888672 81.912109 A 0.50005 0.50005 0 1 0 69.886719 81.955078 C 69.977149 79.851321 70.144182 77.941252 70.337891 76.277344 A 0.50005 0.50005 0 0 0 69.841797 75.712891 z M 34.167969 76.226562 A 0.50005 0.50005 0 0 0 33.744141 76.974609 L 35.935547 80.919922 A 0.50005 0.50005 0 1 0 36.808594 80.435547 L 34.619141 76.490234 A 0.50005 0.50005 0 0 0 34.167969 76.226562 z"/></svg>